<svg width="15.000000" height="8.733398" viewBox="0 0 15 8.7334" fill="none" xmlns="http://www.w3.org/2000/svg" xmlns:xlink="http://www.w3.org/1999/xlink">
	<desc>
			Created with Pixso.
	</desc>
	<defs/>
	<path id="Vector" d="M0 4.3667C0 4.53246 0.0658417 4.69142 0.18306 4.80864C0.300262 4.92584 0.459244 4.9917 0.625 4.9917L12.8663 4.9917L10.1837 7.67419C10.0699 7.79207 10.0069 7.94995 10.0083 8.11383C10.0098 8.27769 10.0755 8.43445 10.1914 8.55034C10.3073 8.66621 10.464 8.73195 10.6279 8.73337C10.7917 8.73479 10.9496 8.6718 11.0675 8.55795L14.8175 4.80795C14.8753 4.75044 14.9212 4.68208 14.9525 4.60678C14.9839 4.53149 15 4.45074 15 4.3692L15 4.3667C15 4.28545 14.9837 4.20419 14.9512 4.12794C14.9201 4.05217 14.8742 3.98334 14.8163 3.92545L11.0663 0.175446C10.9484 0.0615997 10.7905 -0.00140381 10.6266 3.05176e-05C10.4628 0.00144958 10.306 0.0671844 10.1901 0.18306C10.0742 0.298935 10.0085 0.455704 10.0071 0.619568C10.0057 0.783447 10.0686 0.941315 10.1825 1.05919L12.8663 3.7417L0.625 3.7417C0.459244 3.7417 0.300262 3.80754 0.18306 3.92476C0.0658417 4.04196 0 4.20093 0 4.3667Z" fill="#FFFFFF" fill-opacity="1.000000" fill-rule="nonzero"/>
</svg>
