<svg width="105.000000" height="60.000000" viewBox="0 0 105 60" fill="none" xmlns="http://www.w3.org/2000/svg" xmlns:xlink="http://www.w3.org/1999/xlink">
	<desc>
			Created with Pixso.
	</desc>
	<defs>
		<clipPath id="clip1_4995">
			<rect id="Frame 6" width="124.000000" height="12.000000" transform=" rotate(0.000000)" fill="white" fill-opacity="0"/>
		</clipPath>
		<clipPath id="clip1_5001">
			<rect id="Frame 7" width="124.000000" height="12.000000" transform="translate(0.000000 24.000000)" fill="white" fill-opacity="0"/>
		</clipPath>
		<clipPath id="clip1_5007">
			<rect id="Frame 5" width="124.000000" height="12.000000" transform="translate(0.000000 48.000000)" fill="white" fill-opacity="0"/>
		</clipPath>
		<clipPath id="clip1_4994">
			<rect id="circles" width="105.000000" height="60.000000" fill="white" fill-opacity="0"/>
		</clipPath>
	</defs>
	<g clip-path="url(#clip1_4994)">
		<g clip-path="url(#clip1_4995)">
			<circle id="Ellipse 1" r="6.000000" transform="matrix(1 1 -5.55112e-17 5.55112e-17 6 6)" fill="#E84949" fill-opacity="1.000000"/>
			<circle id="Ellipse 2" r="6.000000" transform="matrix(1 1 -5.55112e-17 5.55112e-17 34 6)" fill="#E84949" fill-opacity="1.000000"/>
			<circle id="Ellipse 3" r="6.000000" transform="matrix(1 1 -5.55112e-17 5.55112e-17 62 6)" fill="#E84949" fill-opacity="1.000000"/>
			<circle id="Ellipse 4" r="6.000000" transform="matrix(1 1 -5.55112e-17 5.55112e-17 90 6)" fill="#E84949" fill-opacity="1.000000"/>
			<circle id="Ellipse 5" r="6.000000" transform="matrix(1 1 -5.55112e-17 5.55112e-17 118 6)" fill="#E84949" fill-opacity="1.000000"/>
		</g>
		<g clip-path="url(#clip1_5001)">
			<circle id="Ellipse 1" r="6.000000" transform="matrix(1 1 -5.55112e-17 5.55112e-17 6 30)" fill="#E84949" fill-opacity="1.000000"/>
			<circle id="Ellipse 2" r="6.000000" transform="matrix(1 1 -5.55112e-17 5.55112e-17 34 30)" fill="#E84949" fill-opacity="1.000000"/>
			<circle id="Ellipse 3" r="6.000000" transform="matrix(1 1 -5.55112e-17 5.55112e-17 62 30)" fill="#E84949" fill-opacity="1.000000"/>
			<circle id="Ellipse 4" r="6.000000" transform="matrix(1 1 -5.55112e-17 5.55112e-17 90 30)" fill="#E84949" fill-opacity="1.000000"/>
			<circle id="Ellipse 5" r="6.000000" transform="matrix(1 1 -5.55112e-17 5.55112e-17 118 30)" fill="#E84949" fill-opacity="1.000000"/>
		</g>
		<g clip-path="url(#clip1_5007)">
			<circle id="Ellipse 6" r="6.000000" transform="matrix(1 1 -5.55112e-17 5.55112e-17 6 54)" fill="#E84949" fill-opacity="1.000000"/>
			<circle id="Ellipse 7" r="6.000000" transform="matrix(1 1 -5.55112e-17 5.55112e-17 34 54)" fill="#E84949" fill-opacity="1.000000"/>
			<circle id="Ellipse 8" r="6.000000" transform="matrix(1 1 -5.55112e-17 5.55112e-17 62 54)" fill="#E84949" fill-opacity="1.000000"/>
			<circle id="Ellipse 9" r="6.000000" transform="matrix(1 1 -5.55112e-17 5.55112e-17 90 54)" fill="#E84949" fill-opacity="1.000000"/>
			<circle id="Ellipse 10" r="6.000000" transform="matrix(1 1 -5.55112e-17 5.55112e-17 118 54)" fill="#E84949" fill-opacity="1.000000"/>
		</g>
	</g>
</svg>
