<svg width="26.399994" height="24.000000" viewBox="0 0 26.4 24" fill="none" xmlns="http://www.w3.org/2000/svg" xmlns:xlink="http://www.w3.org/1999/xlink">
	<desc>
			Created with Pixso.
	</desc>
	<defs>
		<clipPath id="clip1_4810">
			<rect id="gears-svgrepo-com 2" width="26.400000" height="24.000000" fill="white" fill-opacity="0"/>
		</clipPath>
	</defs>
	<g clip-path="url(#clip1_4810)">
		<path id="Vector" d="M15.4726 12.3299L14.4372 11.3886C14.5501 11.1773 14.6491 10.9603 14.7336 10.7381L16.1979 10.7381C16.679 10.7381 17.0692 10.3835 17.0692 9.94598L17.0692 7.62378C17.0692 7.18634 16.6791 6.8316 16.1979 6.8316L14.7335 6.8316C14.649 6.60956 14.55 6.39252 14.4372 6.18121L15.4726 5.23987C15.8129 4.93054 15.8129 4.42896 15.4726 4.11963L13.6664 2.4776C13.326 2.16833 12.7745 2.16833 12.4341 2.4776L11.3987 3.41895C11.1662 3.31628 10.9276 3.22626 10.6832 3.14954L10.6832 1.8183C10.6832 1.38086 10.2931 1.02612 9.81183 1.02612L7.25742 1.02612C6.77628 1.02612 6.38605 1.3808 6.38605 1.8183L6.38605 3.14954C6.14178 3.22638 5.90302 3.31622 5.67059 3.41895L4.63519 2.4776C4.47183 2.3291 4.25012 2.24561 4.01901 2.24561C3.7879 2.24561 3.56631 2.3291 3.40283 2.4776L1.59653 4.11963C1.43317 4.26813 1.34134 4.46967 1.34134 4.67981C1.34134 4.88989 1.43317 5.09131 1.59653 5.23993L2.63199 6.18127C2.5191 6.39252 2.42007 6.60956 2.33563 6.83173L0.871368 6.83173C0.390137 6.83173 0 7.18634 0 7.62378L0 9.94604C0 10.3835 0.390137 10.7382 0.871368 10.7382L2.33563 10.7382C2.42026 10.9603 2.5191 11.1773 2.63208 11.3887L1.59662 12.33C1.25635 12.6393 1.25635 13.1409 1.59662 13.4502L3.40283 15.0922C3.74319 15.4014 4.29477 15.4016 4.6351 15.0922L5.67059 14.1509C5.90292 14.2536 6.14178 14.3436 6.38605 14.4204L6.38605 15.7516C6.38605 16.189 6.77618 16.5438 7.25742 16.5438L9.81192 16.5438C10.2931 16.5438 10.6833 16.1891 10.6833 15.7516L10.6833 14.4204C10.9275 14.3435 11.1663 14.2536 11.3987 14.1509L12.4342 15.0922C12.7746 15.4015 13.3261 15.4015 13.6665 15.0922L15.4727 13.4502C15.813 13.1408 15.813 12.6392 15.4726 12.3299ZM13.2292 9.7688C13.1092 10.2439 12.904 10.6941 12.6194 11.1069C12.4037 11.4197 12.4544 11.8266 12.7416 12.0876L13.6243 12.89L13.0503 13.4119L12.1675 12.6094C11.8803 12.3483 11.4328 12.3024 11.0887 12.4983C10.6345 12.7571 10.1394 12.9436 9.61707 13.0526C9.22116 13.1351 8.94061 13.4554 8.94061 13.8246L8.94061 14.9595L8.12888 14.9595L8.12888 13.8246C8.12888 13.4554 7.84836 13.1352 7.45245 13.0526C6.93015 12.9436 6.43503 12.7571 5.9808 12.4983C5.63696 12.3025 5.18924 12.3482 4.90195 12.6094L4.0192 13.4119L3.44525 12.89L4.32791 12.0876C4.61511 11.8265 4.66577 11.4197 4.45013 11.1069C4.1655 10.6941 3.96036 10.2439 3.84036 9.7688C3.74951 9.409 3.39725 9.15393 2.99112 9.15393L1.74268 9.15393L1.74268 8.41602L2.99084 8.41602C3.39688 8.41602 3.74915 8.16101 3.84009 7.80121C3.96017 7.32611 4.16525 6.87598 4.44986 6.46332C4.66568 6.15051 4.61493 5.74353 4.32773 5.48242L3.44498 4.67993L4.01901 4.15814L4.9017 4.96069C5.1889 5.22186 5.63663 5.26764 5.98062 5.07172C6.43466 4.81293 6.92978 4.62653 7.45218 4.51752C7.84808 4.43494 8.12863 4.11462 8.12863 3.74542L8.12863 2.61047L8.94037 2.61047L8.94037 3.74524C8.94037 4.11444 9.22089 4.43469 9.61679 4.51733C10.1393 4.62634 10.6343 4.81281 11.0883 5.07153C11.4324 5.26764 11.8802 5.22174 12.1673 4.96051L13.05 4.15802L13.624 4.67981L12.7412 5.4823C12.454 5.74347 12.4034 6.15033 12.6191 6.46313C12.9037 6.87579 13.1088 7.32599 13.2289 7.80109C13.3197 8.16083 13.6721 8.41583 14.0781 8.41583L15.3263 8.41583L15.3263 9.15381L14.0781 9.15381C13.6722 9.15387 13.32 9.40894 13.2292 9.7688Z" fill="#FFFFFF" fill-opacity="0.870000" fill-rule="nonzero"/>
		<path id="Vector" d="M8.53458 5.74097C6.68826 5.74097 5.18622 7.10645 5.18622 8.78491C5.18622 10.4634 6.68826 11.8289 8.53458 11.8289C10.3809 11.8289 11.8829 10.4634 11.8829 8.78491C11.8829 7.10645 10.381 5.74097 8.53458 5.74097ZM8.53458 10.2446C7.64914 10.2446 6.92889 9.58984 6.92889 8.78491C6.92889 7.97998 7.64923 7.3252 8.53458 7.3252C9.41992 7.3252 10.1403 7.97998 10.1403 8.78491C10.1403 9.58984 9.41998 10.2446 8.53458 10.2446Z" fill="#FFFFFF" fill-opacity="0.870000" fill-rule="nonzero"/>
		<path id="Vector" d="M25.8293 17.8656C26.2079 17.8021 26.4582 17.4717 26.3883 17.1275L26.0595 15.5071C26.026 15.3417 25.9215 15.1954 25.7694 15.1001C25.6171 15.0048 25.4293 14.9684 25.2476 14.9988L24.2805 15.1609C24.2055 15.0439 24.1244 14.9302 24.0375 14.8202L24.5952 14.0839C24.7 13.9454 24.74 13.7748 24.7065 13.6096C24.673 13.4443 24.5686 13.2979 24.4163 13.2026L22.9233 12.2682C22.6065 12.0698 22.1723 12.1424 21.954 12.4307L21.3963 13.1671C21.2522 13.1324 21.1065 13.1042 20.9595 13.0823L20.7811 12.2032C20.7112 11.8591 20.3473 11.6313 19.9692 11.695L18.1867 11.994C18.0049 12.0244 17.8439 12.1193 17.739 12.2577C17.6342 12.3962 17.5942 12.5668 17.6277 12.7321L17.8061 13.6112C17.6773 13.6794 17.5522 13.7531 17.4312 13.8321L16.6213 13.3252C16.4689 13.2299 16.2813 13.1936 16.0995 13.2239C15.9176 13.2544 15.7567 13.3493 15.6519 13.4877L14.624 14.845C14.5191 14.9834 14.4791 15.154 14.5126 15.3193C14.5461 15.4846 14.6505 15.631 14.8028 15.7263L15.6127 16.2332C15.5746 16.3642 15.5436 16.4966 15.5195 16.6303L14.5524 16.7925C14.3705 16.8229 14.2096 16.9179 14.1047 17.0562C13.9998 17.1948 13.9599 17.3654 13.9934 17.5306L14.3223 19.151C14.3921 19.4952 14.7555 19.7231 15.1342 19.6592L16.1013 19.4971C16.1762 19.6141 16.2574 19.7278 16.3442 19.8379L15.7866 20.574C15.6818 20.7126 15.6417 20.8831 15.6752 21.0484C15.7087 21.2137 15.8132 21.36 15.9655 21.4553L17.4584 22.3898C17.7752 22.5882 18.2095 22.5156 18.4278 22.2273L18.9854 21.4911C19.1295 21.5256 19.2751 21.5538 19.4223 21.5757L19.6006 22.4548C19.6626 22.7601 19.9557 22.9738 20.2854 22.9738C20.3273 22.9738 20.3699 22.9703 20.4126 22.9631L22.1951 22.6642C22.3769 22.6338 22.5379 22.5388 22.6427 22.4005C22.7475 22.262 22.7876 22.0914 22.7541 21.9261L22.5757 21.0469C22.7045 20.9788 22.8296 20.905 22.9506 20.8261L23.7604 21.333C23.9128 21.4283 24.1002 21.4648 24.2822 21.4343C24.464 21.4038 24.625 21.3088 24.7298 21.1704L25.7577 19.8132C25.976 19.5249 25.896 19.1304 25.579 18.9319L24.7691 18.425C24.8071 18.2939 24.8382 18.1615 24.8622 18.0279L25.8293 17.8656ZM24.0973 16.8674C23.7776 16.921 23.5412 17.1682 23.5273 17.4633C23.5113 17.8007 23.4338 18.1309 23.2969 18.4449C23.1772 18.7195 23.282 19.0329 23.5496 19.2004L24.2143 19.6165L23.9769 19.9299L23.3124 19.5139C23.0446 19.3463 22.6852 19.3691 22.4459 19.5688C22.172 19.7971 21.8603 19.9808 21.5193 20.1147C21.221 20.2319 21.0513 20.5209 21.1103 20.8114L21.2567 21.533L20.8452 21.602L20.6988 20.8805C20.6399 20.59 20.368 20.375 20.0433 20.3624C19.6719 20.3477 19.3087 20.2772 18.9633 20.1529C18.8796 20.1227 18.7928 20.1083 18.7068 20.1083C18.4827 20.1083 18.2655 20.2068 18.1324 20.3826L17.6748 20.9868L17.3301 20.7711L17.7877 20.1669C17.972 19.9236 17.9469 19.5969 17.7272 19.3792C17.4761 19.1302 17.2741 18.8469 17.1266 18.5367C16.9977 18.2656 16.679 18.1113 16.3603 18.165L15.5666 18.2981L15.4906 17.924L16.2844 17.791C16.604 17.7374 16.8405 17.4901 16.8543 17.195C16.8704 16.8576 16.9478 16.5274 17.0847 16.2133C17.2045 15.9387 17.0996 15.6254 16.8319 15.4578L16.1673 15.0419L16.4047 14.7285L17.0693 15.1445C17.3371 15.3121 17.6963 15.2892 17.9358 15.0895C18.2096 14.8613 18.5214 14.6776 18.8625 14.5435C19.1606 14.4263 19.3304 14.1373 19.2714 13.8469L19.125 13.1253L19.5365 13.0563L19.6829 13.7778C19.7418 14.0684 20.0138 14.2834 20.3384 14.296C20.7095 14.3105 21.0728 14.381 21.4182 14.5054C21.7205 14.6144 22.065 14.5189 22.2492 14.2757L22.7069 13.6714L23.0516 13.8872L22.594 14.4914C22.4097 14.7348 22.4348 15.0615 22.6544 15.2792C22.9055 15.5281 23.1076 15.8114 23.255 16.1215C23.3838 16.3926 23.7021 16.547 24.0213 16.4933L24.8151 16.3602L24.891 16.7343L24.0973 16.8674Z" fill="#FFFFFF" fill-opacity="0.870000" fill-rule="nonzero"/>
		<path id="Vector" d="M21.5828 15.491C21.0428 15.153 20.3901 15.0265 19.7454 15.1345C19.1006 15.2427 18.5407 15.5727 18.1689 16.0636C17.4012 17.0771 17.6838 18.4694 18.7986 19.1672C19.2228 19.4327 19.7074 19.56 20.1871 19.56C20.9684 19.56 21.7372 19.2225 22.2127 18.5946C22.9803 17.5811 22.6977 16.1888 21.5828 15.491ZM21.0644 17.8759C20.7328 18.3137 20.071 18.4247 19.5894 18.1233C19.1077 17.8218 18.9856 17.2202 19.3172 16.7823C19.3173 16.7823 19.3173 16.7823 19.3173 16.7823C19.4778 16.5702 19.7198 16.4276 19.9984 16.3809C20.0633 16.3701 20.1284 16.3647 20.1931 16.3647C20.4058 16.3647 20.6133 16.4229 20.7923 16.5349C21.274 16.8364 21.3961 17.438 21.0644 17.8759Z" fill="#FFFFFF" fill-opacity="0.870000" fill-rule="nonzero"/>
	</g>
</svg>
