<svg width="30.000000" height="30.000000" viewBox="0 0 30 30" fill="none" xmlns="http://www.w3.org/2000/svg" xmlns:xlink="http://www.w3.org/1999/xlink">
	<desc>
			Created with Pixso.
	</desc>
	<defs>
		<clipPath id="clip1_4787">
			<rect width="30.000000" height="30.000000" fill="white" fill-opacity="0"/>
		</clipPath>
	</defs>
	<g clip-path="url(#clip1_4787)">
		<path d="M30 6.19574L30 23.8044C30 25.4283 28.6891 26.7392 27.0652 26.7392L2.93478 26.7392C1.31085 26.7392 0 25.4283 0 23.8044L0 6.19574C0 6.14355 0 6.09137 0.00650024 6.03918C0.0847778 4.53918 1.27823 3.3457 2.77823 3.26752C2.83038 3.26099 2.88257 3.26099 2.93472 3.26099L27.0652 3.26099C27.1173 3.26099 27.176 3.26099 27.2282 3.26752C28.7217 3.34576 29.9152 4.53918 29.9934 6.03271C30 6.08484 30 6.14355 30 6.19574Z" fill="#FFFFFF" fill-opacity="1.000000" fill-rule="nonzero"/>
		<path d="M27.2283 3.26727C27.176 3.26074 27.1175 3.26074 27.0652 3.26074L15 3.26074L15 26.739L27.0652 26.739C28.6891 26.739 30 25.4282 30 23.8043L30 6.19556C30 6.14337 30 6.08466 29.9935 6.03247C29.9152 4.539 28.7217 3.34552 27.2283 3.26727Z" fill="#FFFFFF" fill-opacity="1.000000" fill-rule="nonzero"/>
		<path d="M29.9935 6.03259C29.9152 4.53912 28.7218 3.3457 27.2283 3.2674C22.435 8.06067 19.7432 10.7524 15 15.4956C13.2007 13.6952 4.54745 5.03656 2.77829 3.26733C1.27829 3.34564 0.0847778 4.53906 0.00656128 6.03906C0 6.09125 0 6.14349 0 6.19562L0 23.8043C0 25.4282 1.31085 26.7391 2.93478 26.7391L3.91306 26.7391L3.91306 9.94562L13.6174 19.6435C13.9957 20.0283 14.4979 20.2174 15.0001 20.2174C15.5022 20.2174 16.0044 20.0283 16.3827 19.6435L26.0871 9.93909L26.0871 26.7391L27.0653 26.7391C28.6893 26.7391 30.0001 25.4282 30.0001 23.8043L30.0001 6.19562C30 6.14349 30 6.08478 29.9935 6.03259Z" fill="#303030" fill-opacity="0.570000" fill-rule="nonzero"/>
		<path d="M16.3826 19.6435L26.0869 9.93909L26.0869 26.7391L27.0652 26.7391C28.6891 26.7391 30 25.4282 30 23.8043L30 6.19562C30 6.14349 30 6.08478 29.9935 6.03253C29.9152 4.53906 28.7218 3.34564 27.2283 3.26733C22.435 8.06067 19.7432 10.7524 15 15.4956L15 20.2173C15.5021 20.2173 16.0044 20.0283 16.3826 19.6435Z" fill="#303030" fill-opacity="0.570000" fill-rule="nonzero"/>
	</g>
</svg>
