<svg width="30.000000" height="30.000000" viewBox="0 0 30 30" fill="none" xmlns="http://www.w3.org/2000/svg" xmlns:xlink="http://www.w3.org/1999/xlink">
	<desc>
			Created with Pixso.
	</desc>
	<defs>
		<clipPath id="clip1_4776">
			<rect width="30.000000" height="30.000000" fill="white" fill-opacity="0"/>
		</clipPath>
	</defs>
	<g clip-path="url(#clip1_4776)">
		<path d="M27.2863 0L2.71375 0C1.21503 0 0 1.21503 0 2.71375L0 27.2862C0 28.785 1.21503 30 2.71375 30L27.2862 30C28.785 30 30 28.785 30 27.2862L30 2.71375C30 1.21503 28.785 0 27.2863 0ZM9.28326 25.904C9.28326 26.3401 8.92969 26.6937 8.49353 26.6937L5.13184 26.6937C4.69562 26.6937 4.34204 26.3401 4.34204 25.904L4.34204 11.8118C4.34204 11.3755 4.69562 11.022 5.13184 11.022L8.49353 11.022C8.92969 11.022 9.28326 11.3755 9.28326 11.8118L9.28326 25.904ZM6.81268 9.6936C5.04889 9.6936 3.61902 8.26373 3.61902 6.49994C3.61902 4.73615 5.04889 3.30627 6.81268 3.30627C8.57648 3.30627 10.0063 4.73615 10.0063 6.49994C10.0063 8.26373 8.57654 9.6936 6.81268 9.6936ZM26.8516 25.9676C26.8516 26.3686 26.5264 26.6937 26.1254 26.6937L22.5181 26.6937C22.1171 26.6937 21.7919 26.3686 21.7919 25.9676L21.7919 19.3575C21.7919 18.3715 22.0812 15.0365 19.215 15.0365C16.9918 15.0365 16.5408 17.3192 16.4503 18.3436L16.4503 25.9676C16.4503 26.3686 16.1252 26.6937 15.7242 26.6937L12.2352 26.6937C11.8342 26.6937 11.5091 26.3686 11.5091 25.9676L11.5091 11.7482C11.5091 11.3472 11.8342 11.022 12.2352 11.022L15.7242 11.022C16.1252 11.022 16.4503 11.3472 16.4503 11.7482L16.4503 12.9776C17.2747 11.7404 18.4998 10.7855 21.1083 10.7855C26.8846 10.7855 26.8516 16.1821 26.8516 19.1472L26.8516 25.9676Z" fill="#FFFFFF" fill-opacity="1.000000" fill-rule="nonzero"/>
	</g>
</svg>
