<svg width="30.000000" height="30.000000" viewBox="0 0 30 30" fill="none" xmlns="http://www.w3.org/2000/svg" xmlns:xlink="http://www.w3.org/1999/xlink">
	<desc>
			Created with Pixso.
	</desc>
	<defs>
		<clipPath id="clip1_4784">
			<rect id="twitter-svgrepo-com 1" width="30.000000" height="30.000000" fill="white" fill-opacity="0"/>
		</clipPath>
	</defs>
	<g clip-path="url(#clip1_4784)">
		<path id="Vector" d="M0.578003 22.5003C1.8454 22.3456 3.13049 22.5123 4.39789 22.304C5.03448 22.2029 5.61755 21.9887 6.1947 21.7626C4.76678 20.8464 3.48151 19.7992 2.28571 18.5438C1.8573 18.0975 2.16669 17.3478 2.79144 17.3301C3.30316 17.3538 3.80292 17.3123 4.29077 17.211C3.04718 15.6343 2.08331 13.9386 1.33368 12.0347C1.13141 11.5229 1.72632 11.0054 2.20831 11.16C2.48798 11.273 2.77356 11.3504 3.06506 11.4099C2.17859 9.27979 1.99414 7.1319 2.48798 4.7757C2.60101 4.23425 3.315 4.10339 3.67792 4.46039C6.52197 7.25665 10.1157 8.60138 13.9593 9.24396C13.6201 6.61407 15.4885 3.81769 17.9397 2.90137C19.9746 2.14575 22.7056 2.66339 24.0741 4.37695C24.9904 3.7998 26.2576 3.60938 27.2751 3.43085C27.8105 3.34155 28.3282 3.86523 28.0129 4.39471C27.644 5.01355 27.293 5.67389 26.9063 6.30463C27.6917 6.07251 28.5009 5.92975 29.31 5.82861C29.8931 5.75122 30.2441 6.64966 29.798 7.00665C28.8519 7.76227 27.9118 8.625 26.9063 9.31525C26.8766 15.9969 24.925 21.6017 18.9573 25.4037C13.983 28.5811 4.73694 28.0456 0.411499 23.72L0.405518 23.72C0.215088 23.6724 0.113953 23.5296 0.0782471 23.375C-0.0883179 23.1251 0.0306396 22.8157 0.250793 22.6967C0.334106 22.5955 0.441223 22.5181 0.578003 22.5003Z" fill="#FFFFFF" fill-opacity="1.000000" fill-rule="nonzero"/>
	</g>
</svg>
