<svg width="30.000000" height="30.000000" viewBox="0 0 30 30" fill="none" xmlns="http://www.w3.org/2000/svg" xmlns:xlink="http://www.w3.org/1999/xlink">
	<desc>
			Created with Pixso.
	</desc>
	<defs>
		<clipPath id="clip1_4778">
			<rect width="30.000000" height="30.000000" fill="white" fill-opacity="0"/>
		</clipPath>
	</defs>
	<g clip-path="url(#clip1_4778)">
		<path d="M25.6066 4.39337C22.7735 1.56024 19.0067 0 15 0C10.9933 0 7.22656 1.56024 4.39337 4.39337C1.56018 7.2265 0 10.9933 0 15C0 18.0167 0.887939 20.9143 2.57074 23.3988L0.0404053 29.3031C-0.038269 29.4867 0.00488281 29.7112 0.145752 29.8528C0.291992 29.9996 0.527771 30.0406 0.714966 29.9514L6.36096 27.2629C8.89795 29.0546 11.8782 30 15 30C19.0067 30 22.7735 28.4398 25.6066 25.6066C28.4397 22.7734 30 19.0067 30 15C30 10.9933 28.4397 7.22656 25.6066 4.39337Z" fill="#2A9F44" fill-opacity="0" fill-rule="nonzero"/>
		<path d="M6.36096 27.2629C8.89795 29.0546 11.8782 30 15 30C19.0067 30 22.7735 28.4398 25.6066 25.6066C28.4397 22.7734 30 19.0067 30 15C30 10.9933 28.4397 7.22656 25.6066 4.39337C22.7735 1.56024 19.0067 0 15 0C10.9933 0 7.22656 1.56024 4.39337 4.39337C1.56018 7.2265 0 10.9933 0 15C0 18.0167 0.887939 20.9143 2.57074 23.3988L1.90387 24.9549L1.43237 26.0551L0.0404053 29.3031C-0.038269 29.4867 0.00488281 29.7112 0.145752 29.8528C0.291992 29.9996 0.527771 30.0406 0.714966 29.9514L3.89447 28.4374L4.98608 27.9175L6.36096 27.2629ZM7.01526 22.8279L8.66852 23.9955Q10.0455 24.9681 11.5767 25.4688Q13.2015 26 15 26Q17.2786 26 19.2234 25.1943Q21.1675 24.3889 22.7781 22.7783Q24.3893 21.1671 25.1947 19.2222Q26 17.2779 26 15Q26 12.7221 25.1947 10.7778Q24.3893 8.83295 22.7781 7.22174Q21.1675 5.61115 19.2234 4.80573Q17.2786 4 15 4Q12.7219 4 10.7773 4.80542Q8.8327 5.6109 7.22174 7.2218Q5.61121 8.83234 4.80579 10.7764Q4 12.7213 4 15Q4 16.7444 4.5025 18.3295Q4.97266 19.8123 5.88257 21.1556L7.01526 22.8279Z" fill="#FFFFFF" fill-opacity="1.000000" fill-rule="evenodd"/>
		<path d="M27.4999 15C27.4999 21.9035 21.9035 27.4999 15 27.4999C8.09644 27.4999 2.5 21.9035 2.5 15C2.5 8.09644 8.09644 2.5 15 2.5C21.9035 2.5 27.4999 8.09644 27.4999 15Z" fill="#E5E5E5" fill-opacity="0" fill-rule="evenodd"/>
		<path d="M25.9999 15C25.9999 21.0751 21.0751 25.9999 15 25.9999C8.92487 25.9999 4 21.0751 4 15C4 8.92487 8.92487 4 15 4C21.0751 4 25.9999 8.92487 25.9999 15Z" fill="#FFFFFF" fill-opacity="0" fill-rule="evenodd"/>
		<path d="M22.9916 20.0766L22.5421 17.6414C22.5048 17.4403 22.349 17.282 22.1484 17.2419L18.6129 16.5349C18.4487 16.5021 18.2795 16.5534 18.1612 16.6716L16.7249 18.108C14.3048 17.0236 12.9616 15.6776 11.7798 13.1536L13.2115 11.7218C13.3298 11.6036 13.381 11.4341 13.3483 11.2701L12.6412 7.73462C12.601 7.534 12.4427 7.37811 12.2416 7.34094L9.8064 6.89136C9.73969 6.87909 9.67102 6.88043 9.60486 6.89545C8.96185 7.04163 8.37512 7.36554 7.9082 7.83264C7.09955 8.6413 6.79053 9.82117 7.01453 11.2449C7.39056 13.6356 8.56195 16.9627 10.7228 19.1323L10.7523 19.1616C12.9203 21.321 16.2473 22.4924 18.638 22.8685C18.9391 22.9159 19.2293 22.9394 19.5074 22.9394C20.5442 22.9394 21.4127 22.6124 22.0504 21.9748C22.5174 21.5078 22.8414 20.9211 22.9875 20.2781C23.0026 20.212 23.004 20.1434 22.9916 20.0766Z" fill="#FFFFFF" fill-opacity="1.000000" fill-rule="nonzero"/>
		<path d="M20.5076 22.0563C20.2295 22.0563 19.9394 22.0328 19.6382 21.9854C17.2475 21.6093 13.9205 20.4379 11.7525 18.2784L11.7231 18.2491C9.56213 16.0796 8.39081 12.7525 8.01471 10.3618C7.82001 9.12445 8.02856 8.07153 8.61725 7.28613C8.36011 7.4364 8.12164 7.61945 7.90845 7.8327C7.09979 8.64136 6.79077 9.82123 7.01477 11.245C7.39081 13.6357 8.56219 16.9628 10.7231 19.1323L10.7525 19.1616C12.9205 21.3211 16.2476 22.4924 18.6382 22.8685C18.9394 22.916 19.2296 22.9395 19.5076 22.9395C20.5444 22.9395 21.413 22.6124 22.0506 21.9749C22.1663 21.8592 22.2731 21.7361 22.3707 21.6067C21.8407 21.9044 21.2131 22.0563 20.5076 22.0563Z" fill="#189433" fill-opacity="0" fill-rule="nonzero"/>
	</g>
</svg>
